<svg width="100" height="100" viewBox="0 0 100 100" fill="none" xmlns="http://www.w3.org/2000/svg">
  <rect width="100" height="100" rx="35" fill="#333799"/>
  <path
    d="M28.3677 36.12C27.3597 33.384 26.9277 31.728 26.9277 31.152C26.9277 29.568 27.6477 28.2 29.0877 27.192C30.5277 26.184 32.1117 25.608 33.9117 25.608C36.5037 25.608 38.3037 26.832 39.2397 29.136C39.6717 30.288 40.4637 32.664 41.7597 36.12L49.9677 58.656C50.1837 58.08 50.5437 57.144 51.1197 55.704C51.6237 54.336 51.9117 53.544 52.0557 53.256L60.9837 28.992C61.7757 26.832 63.5757 25.752 66.4557 25.752C67.8957 25.752 69.3357 26.328 70.7757 27.336C72.2157 28.416 72.9357 29.712 72.9357 31.224C72.9357 31.8 72.4317 33.384 71.5677 35.904C70.4157 38.928 68.6877 43.32 66.3117 49.008C66.1677 49.296 65.9517 49.656 65.7357 50.232C65.5197 50.808 65.0877 51.816 64.5117 53.328C63.8637 54.84 63.0717 56.64 62.1357 58.8L56.8077 70.752C55.6557 73.776 53.2077 75.216 49.5357 75.216C48.1677 75.216 47.0157 75 46.0797 74.424C45.1437 73.848 44.4957 73.272 44.0637 72.624C43.6317 72.048 43.1277 71.112 42.5517 69.816L28.3677 36.12Z"
    fill="#95AAFF"/>
</svg>
